<svg xmlns="http://www.w3.org/2000/svg" width="520" height="174" viewBox="0 0 520 174" role="img" aria-labelledby="title desc">
<title id="title">Compatibility history</title>
<desc id="desc">Recent full-matrix patched build, installer, and runtime outcomes.</desc>
<rect width="100%" height="100%" fill="#ffffff" rx="8"/>
<text x="12" y="22" font-size="14" font-weight="600" text-anchor="start" fill="#24292f">Compatibility history</text>
<text x="12" y="40" font-size="11" font-weight="400" text-anchor="start" fill="#57606a">Latest: 2026-07-21</text>
<text x="12" y="69" font-size="12" font-weight="600" text-anchor="start" fill="#24292f">Build</text>
<text x="12" y="101" font-size="12" font-weight="600" text-anchor="start" fill="#24292f">Installer</text>
<text x="12" y="133" font-size="12" font-weight="600" text-anchor="start" fill="#24292f">Runtime</text>
<text x="98" y="46" font-size="10" font-weight="400" text-anchor="middle" fill="#57606a">05-24</text>
<rect x="86" y="52" width="24" height="24" rx="4" fill="#2da44e"><title>26369579058 build 9/9</title></rect>
<rect x="86" y="84" width="24" height="24" rx="4" fill="#cf222e"><title>26369579058 installer 8/9</title></rect>
<rect x="86" y="116" width="24" height="24" rx="4" fill="#2da44e"><title>26369579058 runtime 9/9</title></rect>
<text x="130" y="46" font-size="10" font-weight="400" text-anchor="middle" fill="#57606a">05-31</text>
<rect x="118" y="52" width="24" height="24" rx="4" fill="#cf222e"><title>26726791702 build 7/9</title></rect>
<rect x="118" y="84" width="24" height="24" rx="4" fill="#cf222e"><title>26726791702 installer 6/7</title></rect>
<rect x="118" y="116" width="24" height="24" rx="4" fill="#bf8700"><title>26726791702 runtime 7/7</title></rect>
<text x="162" y="46" font-size="10" font-weight="400" text-anchor="middle" fill="#57606a">06-01</text>
<rect x="150" y="52" width="24" height="24" rx="4" fill="#2da44e"><title>26745305526 build 9/9</title></rect>
<rect x="150" y="84" width="24" height="24" rx="4" fill="#cf222e"><title>26745305526 installer 8/9</title></rect>
<rect x="150" y="116" width="24" height="24" rx="4" fill="#2da44e"><title>26745305526 runtime 9/9</title></rect>
<text x="194" y="46" font-size="10" font-weight="400" text-anchor="middle" fill="#57606a">06-14</text>
<rect x="182" y="52" width="24" height="24" rx="4" fill="#cf222e"><title>27508516238 build 1/9</title></rect>
<rect x="182" y="84" width="24" height="24" rx="4" fill="#bf8700"><title>27508516238 installer 1/1</title></rect>
<rect x="182" y="116" width="24" height="24" rx="4" fill="#bf8700"><title>27508516238 runtime 1/1</title></rect>
<text x="226" y="46" font-size="10" font-weight="400" text-anchor="middle" fill="#57606a">06-18</text>
<rect x="214" y="52" width="24" height="24" rx="4" fill="#2da44e"><title>27768557082 build 9/9</title></rect>
<rect x="214" y="84" width="24" height="24" rx="4" fill="#cf222e"><title>27768557082 installer 8/9</title></rect>
<rect x="214" y="116" width="24" height="24" rx="4" fill="#cf222e"><title>27768557082 runtime 8/9</title></rect>
<text x="258" y="46" font-size="10" font-weight="400" text-anchor="middle" fill="#57606a">06-21</text>
<rect x="246" y="52" width="24" height="24" rx="4" fill="#2da44e"><title>27914061978 build 9/9</title></rect>
<rect x="246" y="84" width="24" height="24" rx="4" fill="#2da44e"><title>27914061978 installer 9/9</title></rect>
<rect x="246" y="116" width="24" height="24" rx="4" fill="#cf222e"><title>27914061978 runtime 8/9</title></rect>
<text x="290" y="46" font-size="10" font-weight="400" text-anchor="middle" fill="#57606a">07-05</text>
<rect x="278" y="52" width="24" height="24" rx="4" fill="#2da44e"><title>28750928446 build 9/9</title></rect>
<rect x="278" y="84" width="24" height="24" rx="4" fill="#2da44e"><title>28750928446 installer 9/9</title></rect>
<rect x="278" y="116" width="24" height="24" rx="4" fill="#cf222e"><title>28750928446 runtime 8/9</title></rect>
<text x="322" y="46" font-size="10" font-weight="400" text-anchor="middle" fill="#57606a">07-13</text>
<rect x="310" y="52" width="24" height="24" rx="4" fill="#2da44e"><title>29258581555 build 9/9</title></rect>
<rect x="310" y="84" width="24" height="24" rx="4" fill="#2da44e"><title>29258581555 installer 9/9</title></rect>
<rect x="310" y="116" width="24" height="24" rx="4" fill="#cf222e"><title>29258581555 runtime 8/9</title></rect>
<text x="354" y="46" font-size="10" font-weight="400" text-anchor="middle" fill="#57606a">07-19</text>
<rect x="342" y="52" width="24" height="24" rx="4" fill="#2da44e"><title>29698979699 build 9/9</title></rect>
<rect x="342" y="84" width="24" height="24" rx="4" fill="#2da44e"><title>29698979699 installer 9/9</title></rect>
<rect x="342" y="116" width="24" height="24" rx="4" fill="#cf222e"><title>29698979699 runtime 8/9</title></rect>
<text x="386" y="46" font-size="10" font-weight="400" text-anchor="middle" fill="#57606a">07-20</text>
<rect x="374" y="52" width="24" height="24" rx="4" fill="#2da44e"><title>29727940331 build 9/9</title></rect>
<rect x="374" y="84" width="24" height="24" rx="4" fill="#2da44e"><title>29727940331 installer 9/9</title></rect>
<rect x="374" y="116" width="24" height="24" rx="4" fill="#2da44e"><title>29727940331 runtime 9/9</title></rect>
<text x="418" y="46" font-size="10" font-weight="400" text-anchor="middle" fill="#57606a">07-20</text>
<rect x="406" y="52" width="24" height="24" rx="4" fill="#2da44e"><title>29738506205 build 9/9</title></rect>
<rect x="406" y="84" width="24" height="24" rx="4" fill="#cf222e"><title>29738506205 installer 8/9</title></rect>
<rect x="406" y="116" width="24" height="24" rx="4" fill="#2da44e"><title>29738506205 runtime 9/9</title></rect>
<text x="450" y="46" font-size="10" font-weight="400" text-anchor="middle" fill="#57606a">07-21</text>
<rect x="438" y="52" width="24" height="24" rx="4" fill="#2da44e"><title>29850552122 build 9/9</title></rect>
<rect x="438" y="84" width="24" height="24" rx="4" fill="#2da44e"><title>29850552122 installer 9/9</title></rect>
<rect x="438" y="116" width="24" height="24" rx="4" fill="#2da44e"><title>29850552122 runtime 9/9</title></rect>
<text x="12" y="158" font-size="10" font-weight="400" text-anchor="start" fill="#57606a">green: all known pass; red: at least one failure; amber: pass with unknowns</text>
</svg>
